<mxfile host="Electron" agent="Mozilla/5.0 (Windows NT 10.0; Win64; x64) AppleWebKit/537.36 (KHTML, like Gecko) draw.io/27.0.9 Chrome/134.0.6998.205 Electron/35.4.0 Safari/537.36" version="27.0.9">
  <diagram name="第 1 页" id="fBaKPE-ovusjofGlzLt4">
    <mxGraphModel dx="1090" dy="742" grid="1" gridSize="10" guides="1" tooltips="1" connect="1" arrows="1" fold="1" page="1" pageScale="1" pageWidth="827" pageHeight="1169" math="0" shadow="0">
      <root>
        <mxCell id="0" />
        <mxCell id="1" parent="0" />
        <mxCell id="T6pjtzEHyMYNEqglS-By-1" value="卡牌&lt;br&gt;堆叠操作" style="rounded=0;whiteSpace=wrap;html=1;sketch=1;curveFitting=1;jiggle=2;fillColor=#f8cecc;strokeColor=#b85450;fontSize=16;" vertex="1" parent="1">
          <mxGeometry x="120" y="280" width="160" height="90" as="geometry" />
        </mxCell>
        <mxCell id="T6pjtzEHyMYNEqglS-By-3" value="相关对象&lt;div&gt;进行制作加工&lt;/div&gt;" style="rounded=0;whiteSpace=wrap;html=1;sketch=1;curveFitting=1;jiggle=2;fillColor=#dae8fc;strokeColor=#6c8ebf;fontSize=16;" vertex="1" parent="1">
          <mxGeometry x="480" y="280" width="160" height="90" as="geometry" />
        </mxCell>
        <mxCell id="T6pjtzEHyMYNEqglS-By-5" value="" style="shape=flexArrow;endArrow=classic;startArrow=classic;html=1;rounded=0;exitX=1;exitY=0.5;exitDx=0;exitDy=0;shadow=0;" edge="1" parent="1" source="T6pjtzEHyMYNEqglS-By-1" target="T6pjtzEHyMYNEqglS-By-3">
          <mxGeometry width="100" height="100" relative="1" as="geometry">
            <mxPoint x="320" y="350" as="sourcePoint" />
            <mxPoint x="470" y="330" as="targetPoint" />
          </mxGeometry>
        </mxCell>
      </root>
    </mxGraphModel>
  </diagram>
</mxfile>
